HIERARCHY
ROOT Hips
{
	OFFSET 0.000000 0.000000 0.000000
	CHANNELS 6 Xposition Yposition Zposition Zrotation Yrotation Xrotation 
	JOINT LHipJoint
	{
		OFFSET 0.000000 0.000000 0.000000
		CHANNELS 3 Zrotation Yrotation Xrotation
		JOINT LeftUpLeg
		{
			OFFSET 1.363060 -1.794630 0.839290
			CHANNELS 3 Zrotation Yrotation Xrotation
			JOINT LeftLeg
			{
				OFFSET 2.448110 -6.726130 0.000000
				CHANNELS 3 Zrotation Yrotation Xrotation
				JOINT LeftFoot
				{
					OFFSET 2.562200 -7.039590 0.000000
					CHANNELS 3 Zrotation Yrotation Xrotation
					JOINT LeftToeBase
					{
						OFFSET 0.157640 -0.433110 2.322550
						CHANNELS 3 Zrotation Yrotation Xrotation
						End Site
						{
							OFFSET 0.000000 0.000000 0.000000
						}
					}
				}
			}
		}
	}
	JOINT RHipJoint
	{
		OFFSET 0.000000 0.000000 0.000000
		CHANNELS 3 Zrotation Yrotation Xrotation
		JOINT RightUpLeg
		{
			OFFSET -1.305520 -1.794630 0.839290
			CHANNELS 3 Zrotation Yrotation Xrotation
			JOINT RightLeg
			{
				OFFSET -2.542530 -6.985550 0.000000
				CHANNELS 3 Zrotation Yrotation Xrotation
				JOINT RightFoot
				{
					OFFSET -2.568260 -7.056230 0.000000
					CHANNELS 3 Zrotation Yrotation Xrotation
					JOINT RightToeBase
					{
						OFFSET -0.164730 -0.452590 2.363150
						CHANNELS 3 Zrotation Yrotation Xrotation
						End Site
						{
							OFFSET 0.000000 0.000000 0.000000
						}
					}
				}
			}
		}
	}
	JOINT LowerBack
	{
		OFFSET 0.000000 0.000000 0.000000
		CHANNELS 3 Zrotation Yrotation Xrotation
		JOINT Spine
		{
			OFFSET 0.028270 2.035590 -0.193380
			CHANNELS 3 Zrotation Yrotation Xrotation
			JOINT Spine1
			{
				OFFSET 0.056720 2.048850 -0.042750
				CHANNELS 3 Zrotation Yrotation Xrotation
				JOINT Neck
				{
					OFFSET 0.000000 0.000000 0.000000
					CHANNELS 3 Zrotation Yrotation Xrotation
					JOINT Neck1
					{
						OFFSET -0.054170 1.746240 0.172020
						CHANNELS 3 Zrotation Yrotation Xrotation
						JOINT Head
						{
							OFFSET 0.104070 1.761360 -0.123970
							CHANNELS 3 Zrotation Yrotation Xrotation
							End Site
							{
								OFFSET 0.000000 0.000000 0.000000
							}
						}
					}
				}
				JOINT LeftShoulder
				{
					OFFSET 0.000000 0.000000 0.000000
					CHANNELS 3 Zrotation Yrotation Xrotation
					JOINT LeftArm
					{
						OFFSET 3.362410 1.200890 -0.311210
						CHANNELS 3 Zrotation Yrotation Xrotation
						JOINT LeftForeArm
						{
							OFFSET 4.983000 -0.000000 -0.000000
							CHANNELS 3 Zrotation Yrotation Xrotation
							JOINT LeftHand
							{
								OFFSET 3.483560 -0.000000 -0.000000
								CHANNELS 3 Zrotation Yrotation Xrotation
								JOINT LeftFingerBase
								{
									OFFSET 0.000000 0.000000 0.000000
									CHANNELS 3 Zrotation Yrotation Xrotation
									JOINT LeftHandIndex1
									{
										OFFSET 0.715260 -0.000000 -0.000000
										CHANNELS 3 Zrotation Yrotation Xrotation
										End Site
										{
											OFFSET 0.000000 0.000000 0.000000
										}
									}
								}
								JOINT LThumb
								{
									OFFSET 0.000000 0.000000 0.000000
									CHANNELS 3 Zrotation Yrotation Xrotation
									End Site
									{
										OFFSET 0.000000 0.000000 0.000000
									}
								}
							}
						}
					}
				}
				JOINT RightShoulder
				{
					OFFSET 0.000000 0.000000 0.000000
					CHANNELS 3 Zrotation Yrotation Xrotation
					JOINT RightArm
					{
						OFFSET -3.136600 1.374050 -0.404650
						CHANNELS 3 Zrotation Yrotation Xrotation
						JOINT RightForeArm
						{
							OFFSET -5.241900 -0.000000 -0.000000
							CHANNELS 3 Zrotation Yrotation Xrotation
							JOINT RightHand
							{
								OFFSET -3.444170 -0.000000 -0.000000
								CHANNELS 3 Zrotation Yrotation Xrotation
								JOINT RightFingerBase
								{
									OFFSET 0.000000 0.000000 0.000000
									CHANNELS 3 Zrotation Yrotation Xrotation
									JOINT RightHandIndex1
									{
										OFFSET -0.622530 -0.000000 -0.000000
										CHANNELS 3 Zrotation Yrotation Xrotation
										End Site
										{
											OFFSET 0.000000 0.000000 0.000000
										}
									}
								}
								JOINT RThumb
								{
									OFFSET 0.000000 0.000000 0.000000
									CHANNELS 3 Zrotation Yrotation Xrotation
									End Site
									{
										OFFSET 0.000000 0.000000 0.000000
									}
								}
							}
						}
					}
				}
			}
		}
	}
}
MOTION
Frames: 4
Frame Time: 0.008333
17.844803 17.472208 -12.421852 -1.637261 -76.605142 15.789012 -6.726483 -3.086447 -2.763696 -2.123384 -0.281578 -42.604849 4.875282 14.602329 42.592290 1.996721 -2.035000 7.542792 1.047500 -6.508300 -18.266700 8.016484 -0.465438 5.410940 10.228810 6.201744 -2.911610 -1.497478 -9.496371 28.433293 5.834417 -18.658709 -4.482358 -1.943700 8.747900 -25.009700 2.172476 2.225208 5.122493 0.528167 2.989825 -1.709708 -4.792873 1.602883 -0.362049 -7.133919 -6.968215 -6.973367 6.002362 -9.025835 6.091689 2.683300 -4.412100 4.644600 -4.242227 -1.818994 -0.183533 -76.061772 8.134886 14.909720 17.391317 -22.948371 -4.816088 -2.329813 -3.127443 -7.328831 26.787879 14.704011 9.630300 -7.125000 0.000000 0.000000 1.574700 49.812900 0.186900 1.815616 2.456104 -0.032123 68.725671 -7.107644 8.009385 -17.700237 28.638755 -6.294698 0.956293 -1.902304 -5.223077 -12.965108 35.199212 -8.391400 7.125000 0.000000 0.000000 10.700800 7.339900 12.181800 
17.692598 17.460586 -12.311297 -0.154025 -76.378052 14.096474 -6.818027 -3.044165 -2.594971 -2.714927 -0.319335 -42.241579 5.066497 14.727776 43.276104 1.997157 -2.106080 6.560060 1.280800 -7.172000 -20.226100 7.855003 -0.400158 5.248303 9.936435 5.731147 -3.592786 -2.137649 -10.282208 30.954124 5.783190 -18.636332 -3.156683 -2.106000 9.083500 -26.056900 1.660674 2.100334 5.185167 0.472909 2.810331 -1.710091 -4.612319 1.479506 -0.351192 -7.320843 -7.171112 -6.991375 6.221790 -9.283094 6.073334 2.809600 -4.531700 4.686400 -4.281182 -1.924583 -0.130975 -75.446583 7.239824 14.835745 17.384269 -22.919984 -4.820210 -2.230891 -3.115829 -7.935085 26.008984 14.447464 9.165000 -7.125000 0.000000 0.000000 0.767700 49.360200 0.082500 1.803500 2.522208 -0.021522 68.311165 -7.065610 8.034891 -17.739981 28.710797 -6.334232 0.939143 -1.911219 -5.491843 -12.533963 35.421865 -8.148900 7.125000 0.000000 0.000000 10.971300 7.493900 12.526200 
17.546151 17.443926 -12.203210 -0.006766 -76.011424 13.583641 -6.898887 -3.008639 -2.410986 -2.911323 -0.406111 -41.790520 5.211984 14.813621 43.816898 2.262225 -2.899935 6.262940 1.295500 -7.211500 -20.343400 7.630421 -0.297482 5.009332 10.105352 5.470825 -4.405648 -2.988591 -11.244561 34.285995 5.515563 -18.089052 -1.917995 -1.827100 8.496400 -24.232100 1.579370 1.862689 5.413913 0.462707 2.511597 -1.721003 -4.567389 1.299665 -0.414268 -7.573397 -7.292073 -6.940180 6.458225 -9.427658 6.055372 2.970300 -4.599800 4.715100 -4.318555 -2.031846 -0.080879 -75.000771 6.356511 14.294396 17.399389 -22.898173 -4.827299 -2.114979 -3.043369 -8.201199 24.993324 13.831537 8.420300 -7.125000 0.000000 0.000000 -0.241400 48.435400 -0.020500 1.795408 2.592783 -0.008026 67.907556 -6.948929 8.074070 -17.735903 28.723522 -6.344834 0.933154 -1.920816 -5.659633 -12.363673 35.584672 -8.066100 7.125000 0.000000 0.000000 11.088600 7.634700 12.688500 
17.408651 17.412251 -12.087719 0.515356 -75.570925 12.742692 -6.975603 -2.985410 -2.242432 -3.223426 -0.529363 -41.463985 5.341002 14.884033 44.345849 2.637132 -4.061922 6.295928 1.038200 -6.480500 -18.185000 7.390469 -0.198397 4.777893 10.078410 5.028831 -5.414191 -3.902266 -12.158629 37.620224 5.143206 -17.272712 -0.219094 -1.287700 7.190400 -20.280700 1.561131 1.626810 5.656262 0.407181 2.216163 -1.744178 -4.689551 1.122974 -0.488960 -7.695736 -7.334447 -6.919671 6.655201 -9.479239 6.073036 3.099500 -4.620700 4.752300 -4.369154 -2.158862 -0.018864 -74.363697 5.248854 14.001875 17.290367 -22.708131 -4.750555 -2.282386 -3.046207 -7.948144 26.132175 14.236838 9.075100 -7.125000 0.000000 0.000000 0.971700 49.060300 0.097300 1.779392 2.682029 0.000293 67.558475 -6.832256 8.188553 -17.781555 28.788991 -6.380814 0.949731 -1.902555 -6.068784 -12.434300 35.457751 -8.087800 7.125000 0.000000 0.000000 11.032700 7.511900 12.601900 
